:SAMPLES-PER-SECOND 30
:FULLY-SPECIFIED
:DEGREES
424
root  -5.55417 34.6634 -16.9732 -171.09 73.0864 -176.969
RightUpLeg  -6.55307 -14.759 0.109233
RightLeg  6.57493 -4.18292 -0.2095
RightFoot  4.41307 0.0352746 -0.129099
RightToes  -20.0426 -0.0816964 -0.177165
Spine  -1.21928 0.889291 1.37103
Spine1  -2.42116 1.93856 3.44793
HEad  -60.7795 -8.34279 8.02227
LeftShoulder1  -1.94126e-019 -3.10601e-018 -2.51263e-017
LeftArm  -17.9621 26.2259 -77.4254
LeftForeArm  33.2883 -10.1742 -1.77744
LeftHand  -0.413568 -0.102123 8.81769
RightShoulder  -4.96962e-017 0 -2.36833e-017
RightArm  -15.7416 -11.2674 77.9414
RightForeArm  49.0647 24.379 2.6991
RightHand  -0.261341 -2.13507 -9.06071
LeftUpLeg  -8.53771 0.0893311 5.54017
LeftLeg  9.52364 13.0274 1.31988
LeftFoot  6.97656 -0.0991051 1.78726
LeftToes  -24.9728 1.46665e-006 1.03344e-007
425
root  -5.62189 34.6482 -16.6854 -170.651 71.9302 -176.528
RightUpLeg  -6.60892 -15.4451 0.804046
RightLeg  6.42125 -4.62719 -0.219361
RightFoot  4.24906 0.0354697 -0.144653
RightToes  -19.3096 -0.0777879 -0.171248
Spine  -1.1207 0.979493 1.62363
Spine1  -2.20667 2.13065 3.95349
HEad  -60.7776 -7.54802 6.49694
LeftShoulder1  -1.94126e-019 -3.10601e-018 -2.51263e-017
LeftArm  -18.1134 26.6111 -79.2116
LeftForeArm  33.2367 -9.99343 -1.74813
LeftHand  -0.414701 -0.18229 8.72158
RightShoulder  -4.96962e-017 0 -2.36833e-017
RightArm  -12.4527 -11.1873 78.8057
RightForeArm  49.9678 25.4625 2.8762
RightHand  -0.288798 -1.57259 -8.63091
LeftUpLeg  -9.54632 -0.678706 6.21505
LeftLeg  10.4804 12.602 1.48852
LeftFoot  7.26776 -0.104133 1.80342
LeftToes  -25.6534 1.46665e-006 1.03344e-007
426
root  -5.71868 34.6291 -16.4181 -170.375 70.6257 -176.268
RightUpLeg  -6.61481 -16.5587 1.43522
RightLeg  6.04533 -4.80129 -0.196113
RightFoot  4.19619 0.0348976 -0.150408
RightToes  -18.7363 -0.0745267 -0.166585
Spine  -1.00386 1.03077 1.94463
Spine1  -1.95428 2.2413 4.59308
HEad  -60.5932 -6.43511 4.43435
LeftShoulder1  -1.94126e-019 -3.10601e-018 -2.51263e-017
LeftArm  -18.1043 26.7452 -81.4691
LeftForeArm  33.3524 -9.76744 -1.71035
LeftHand  -0.412805 -0.261539 8.56716
RightShoulder  -4.96962e-017 0 -2.36833e-017
RightArm  -8.83664 -11.2699 79.1482
RightForeArm  51.5019 26.3235 2.98323
RightHand  -0.32116 -1.08335 -8.581
LeftUpLeg  -10.6752 -1.62678 6.81596
LeftLeg  11.4781 12.1961 1.65521
LeftFoot  7.53325 -0.108668 1.81205
LeftToes  -26.1737 1.46665e-006 1.03344e-007
427
root  -5.86105 34.6133 -16.1542 -170.071 69.3534 -175.998
RightUpLeg  -6.61413 -17.6998 2.07508
RightLeg  5.41395 -4.91475 -0.146635
RightFoot  4.30781 0.0350917 -0.167741
RightToes  -18.1068 -0.0719289 -0.161428
Spine  -0.840099 1.1265 2.31986
Spine1  -1.60641 2.4337 5.33604
HEad  -60.2181 -5.04084 1.84205
LeftShoulder1  -1.94126e-019 -3.10601e-018 -2.51263e-017
LeftArm  -18.0096 26.6543 -84.0389
LeftForeArm  33.4314 -9.88076 -1.7304
LeftHand  -0.39184 -0.336219 8.03535
RightShoulder  -4.96962e-017 0 -2.36833e-017
RightArm  -5.93426 -11.321 79.0705
RightForeArm  53.2826 26.6906 2.97986
RightHand  -0.370238 0.578196 -7.29149
LeftUpLeg  -11.9213 -2.29197 7.39617
LeftLeg  12.4849 11.5536 1.77482
LeftFoot  7.81347 -0.110897 1.78533
LeftToes  -26.5586 1.46665e-006 1.03344e-007
428
root  -6.05141 34.6042 -15.9005 -170.017 67.9788 -176.047
RightUpLeg  -6.59417 -19.5086 2.62142
RightLeg  4.44484 -4.4902 -0.058137
RightFoot  4.64345 0.0339805 -0.166502
RightToes  -17.8944 -0.0700344 -0.15968
Spine  -0.654823 1.1804 2.70072
Spine1  -1.22177 2.53177 6.08893
HEad  -59.5731 -3.17221 -1.23212
LeftShoulder1  -1.94126e-019 -3.10601e-018 -2.51263e-017
LeftArm  -17.7445 27.4373 -86.6035
LeftForeArm  32.8544 -12.3685 -2.11634
LeftHand  -0.372002 -0.87162 7.02344
RightShoulder  -4.96962e-017 0 -2.36833e-017
RightArm  -4.04934 -11.2058 78.7637
RightForeArm  54.3514 26.2811 2.84864
RightHand  -0.367031 1.07504 -6.71537
LeftUpLeg  -13.2089 -2.81179 7.82468
LeftLeg  13.2286 10.6813 1.78358
LeftFoot  8.27306 -0.11492 1.75045
LeftToes  -26.7861 1.46665e-006 1.03344e-007
429
root  -6.29782 34.5884 -15.6676 -170.063 66.6417 -176.405
RightUpLeg  -7.07174 -21.4972 3.09837
RightLeg  3.85369 -3.85903 -0.0101862
RightFoot  4.86947 0.0307082 -0.133923
RightToes  -17.7585 -0.0686789 -0.157681
Spine  -0.483803 1.22465 3.0565
Spine1  -0.861497 2.61456 6.79149
HEad  -58.8024 -0.870048 -4.68803
LeftShoulder1  -1.94126e-019 -3.10601e-018 -2.51263e-017
LeftArm  -15.1679 29.7428 -88.688
LeftForeArm  29.7141 -19.02 -2.90596
LeftHand  -0.289633 -1.2864 5.18341
RightShoulder  -4.96962e-017 0 -2.36833e-017
RightArm  -3.00765 -11.1538 78.0823
RightForeArm  55.0328 25.1909 2.59868
RightHand  -0.388696 1.3247 -6.8611
LeftUpLeg  -14.765 -3.01804 8.02998
LeftLeg  13.9807 9.61813 1.73702
LeftFoot  8.67646 -0.113866 1.66244
LeftToes  -26.7574 1.46665e-006 1.03344e-007
430
root  -6.60072 34.5748 -15.4363 -169.944 65.4917 -176.894
RightUpLeg  -8.19623 -22.6492 3.62595
RightLeg  3.71874 -3.8668 -0.00112693
RightFoot  4.97628 0.0302967 -0.141234
RightToes  -17.4626 -0.0675984 -0.155601
Spine  -0.330814 1.27796 3.42801
Spine1  -0.530153 2.72044 7.52187
HEad  -58.2761 1.60688 -8.06847
LeftShoulder1  -1.94126e-019 -3.10601e-018 -2.51263e-017
LeftArm  -12.677 32.9848 -89.9947
LeftForeArm  28.3213 -27.5272 -4.34895
LeftHand  -0.261485 -0.504029 5.2411
RightShoulder  -4.96962e-017 0 -2.36833e-017
RightArm  -4.09425 -10.9397 77.3291
RightForeArm  54.8406 23.3874 2.24969
RightHand  -0.371572 1.13094 -6.74346
LeftUpLeg  -16.5212 -2.77571 8.06388
LeftLeg  14.5121 8.38776 1.59646
LeftFoot  8.88451 -0.104167 1.50232
LeftToes  -26.6522 1.46665e-006 1.03344e-007
431
root  -6.91412 34.5793 -15.2151 -170.274 64.6004 -177.969
RightUpLeg  -9.5479 -23.5585 3.9036
RightLeg  3.79206 -3.84004 -0.00601459
RightFoot  5.08467 0.0295616 -0.142385
RightToes  -17.1741 -0.0667446 -0.153722
Spine  -0.141727 1.50598 3.61039
Spine1  -0.111887 3.20272 7.85084
HEad  -57.8219 3.91605 -10.8939
LeftShoulder1  -1.94126e-019 -3.10601e-018 -2.51263e-017
LeftArm  -13.6654 35.5075 -90.0272
LeftForeArm  26.5148 -32.9784 -5.72778
LeftHand  -0.285912 1.4014 8.22467
RightShoulder  -4.96962e-017 0 -2.36833e-017
RightArm  -5.60197 -10.9988 76.3593
RightForeArm  53.9426 20.9623 1.81685
RightHand  -0.357671 0.521958 -7.10853
LeftUpLeg  -18.0289 -2.46207 7.71665
LeftLeg  14.5877 7.69083 1.475
LeftFoot  8.90824 -0.0962623 1.39727
LeftToes  -24.8176 1.46665e-006 1.03344e-007
432
root  -7.27793 34.5934 -15.0023 -170.686 63.766 -179.368
RightUpLeg  -11.2992 -24.0338 4.06964
RightLeg  4.07072 -4.20157 -0.0270063
RightFoot  5.22534 0.0315471 -0.180341
RightToes  -16.9777 -0.0660693 -0.151879
Spine  -0.103577 1.9324 3.83772
Spine1  0.0236701 4.08178 8.27282
HEad  -56.5465 6.52978 -13.1019
LeftShoulder1  -1.94126e-019 -3.10601e-018 -2.51263e-017
LeftArm  -14.68 37.455 -89.5724
LeftForeArm  26.0314 -35.7495 -6.47262
LeftHand  -0.392793 -0.235064 8.19055
RightShoulder  -4.96962e-017 0 -2.36833e-017
RightArm  -7.89888 -11.7798 74.6044
RightForeArm  53.0494 19.0067 1.48859
RightHand  -0.353055 0.111145 -7.50206
LeftUpLeg  -19.6597 -2.01906 7.01352
LeftLeg  14.7547 9.02526 1.75632
LeftFoot  7.12696 -0.0724938 1.3256
LeftToes  -22.0172 1.46665e-006 1.03344e-007
433
root  -7.61292 34.6002 -14.8266 -171.58 62.3145 179.264
RightUpLeg  -12.5172 -25.189 3.97871
RightLeg  4.57589 -4.57829 -0.0697326
RightFoot  5.2628 0.0332509 -0.211654
RightToes  -16.6463 -0.0655241 -0.150236
Spine  0.248378 1.88679 3.80808
Spine1  0.728437 4.02588 8.12088
HEad  -55.0094 11.2952 -12.6362
LeftShoulder1  -1.94126e-019 -3.10601e-018 -2.51263e-017
LeftArm  -14.797 38.1713 -87.8447
LeftForeArm  26.3407 -37.6606 -6.98652
LeftHand  -0.371194 -1.73804 6.22244
RightShoulder  -4.96962e-017 0 -2.36833e-017
RightArm  -10.6816 -11.9364 73.7715
RightForeArm  52.7109 17.2011 1.18065
RightHand  -0.309185 -1.07019 -8.23236
LeftUpLeg  -20.8372 -0.401264 5.71522
LeftLeg  15.1148 11.9771 2.40106
LeftFoot  5.73929 -0.0626654 1.41165
LeftToes  -23.3541 1.46665e-006 1.03344e-007
434
root  -7.97821 34.6323 -14.6735 -172.797 60.6676 177.458
RightUpLeg  -13.6048 -26.3955 3.57206
RightLeg  4.71845 -5.07139 -0.0898658
RightFoot  5.52893 0.0380634 -0.284242
RightToes  -16.6743 -0.0650608 -0.149559
Spine  0.500136 1.8688 3.66235
Spine1  1.20317 3.97918 7.77657
HEad  -52.0998 16.2899 -9.37594
LeftShoulder1  -1.94126e-019 -3.10601e-018 -2.51263e-017
LeftArm  -13.0469 37.6647 -85.8587
LeftForeArm  26.0531 -37.3928 -6.93444
LeftHand  -0.293091 -2.16054 4.7022
RightShoulder  -4.96962e-017 0 -2.36833e-017
RightArm  -14.3745 -12.7704 72.5098
RightForeArm  53.2025 15.4379 1.14385
RightHand  -0.313804 -1.38005 -8.96775
LeftUpLeg  -21.8538 2.14121 3.71039
LeftLeg  15.1857 14.2469 2.86528
LeftFoot  5.69146 -0.0733413 1.63692
LeftToes  -21.9378 1.46665e-006 1.03344e-007
